<svg width="104" height="24" viewBox="0 0 104 24" fill="none" xmlns="http://www.w3.org/2000/svg">
<path d="M31.113 7.67822C28.6478 7.67822 27.1771 8.85816 26.7007 11.2156V7.84916H22.7046V18.1053H26.7007V12.7897C26.7007 11.6169 27.5332 11.0281 29.1982 11.0281C30.8633 11.0281 31.6958 11.6145 31.6958 12.7897V18.1053H35.6919V12.7897C35.6919 11.1705 35.308 9.91701 34.5425 9.02909C33.754 8.1293 32.6116 7.67822 31.113 7.67822Z" fill="#141414"/>

<path d="M44.3502 5.28516L40.3541 6.13984V7.84919H38.023V11.2679H40.3541V14.3448C40.3541 15.7692 40.8143 16.7901 41.737 17.405C42.6135 17.9866 44.0403 18.2763 46.0152 18.2763C46.8477 18.2763 47.6248 18.2027 48.3463 18.0531V14.6344C47.6918 14.7816 47.0813 14.8576 46.5147 14.8576C45.7701 14.8576 45.2382 14.7887 44.9168 14.6534C44.5398 14.5062 44.3502 14.2308 44.3502 13.8319V11.2679H48.3463V7.84919H44.3502V5.28516Z" fill="#141414"/>
<path d="M55.0062 11.5741V7.84672H51.0101V18.1029H55.0062V14.3423C55.0062 13.4069 55.3276 12.7469 55.9728 12.3599C56.6157 11.9729 57.7373 11.7782 59.3353 11.7782V7.67578C58.1698 7.67578 57.2031 8.04614 56.4377 8.78686C55.7161 9.47061 55.2398 10.3989 55.0062 11.5741Z" fill="#141414"/>
<path d="M70.6577 11.37C70.1697 8.90801 68.6434 7.67822 66.0788 7.67822C64.5248 7.67822 63.3431 8.14592 62.5314 9.07895C61.7312 9.99061 61.3335 11.2892 61.3335 12.9772C61.3335 14.6652 61.7335 15.9639 62.5314 16.8755C63.3407 17.8109 64.5248 18.2762 66.0788 18.2762C68.6434 18.2762 70.1697 17.0465 70.6577 14.5845V18.1053H74.6537V7.84916H70.6577V11.37ZM67.9936 14.8575C66.2176 14.8575 65.3295 14.2308 65.3295 12.9772C65.3295 11.7237 66.2176 11.0969 67.9936 11.0969C69.7696 11.0969 70.6577 11.7237 70.6577 12.9772C70.6577 14.2308 69.7696 14.8575 67.9936 14.8575Z" fill="#141414"/>
<path d="M91.0129 4.43018V18.105H95.009V12.977V4.43018H91.0129Z" fill="#141414"/>
<path d="M104 7.84912H99.3378L95.0087 12.9772L99.3378 18.1053H104L99.6708 12.9772L104 7.84912Z" fill="#141414"/>
<path d="M86.2028 14.1121C85.7796 14.6059 85.0419 14.8575 83.9781 14.8575C82.2021 14.8575 81.314 14.2308 81.314 12.9772C81.314 11.7237 82.2021 11.0969 83.9781 11.0969C84.8129 11.0969 85.4489 11.2489 85.8906 11.5551L89.0241 9.1478C88.9431 9.07895 88.8599 9.0101 88.772 8.94362C87.6296 8.10081 86.0293 7.67822 83.9758 7.67822C81.7881 7.67822 80.1231 8.14592 78.9807 9.07895C77.8706 9.99061 77.3156 11.2892 77.3156 12.9772C77.3156 14.6652 77.8706 15.9639 78.9807 16.8755C80.1231 17.8109 81.7881 18.2762 83.9758 18.2762C86.0293 18.2762 87.6273 17.8537 88.772 17.0108C88.9755 16.8589 89.1582 16.6903 89.327 16.5123L86.2005 14.1097L86.2028 14.1121Z" fill="#141414"/>
<path d="M11.9975 7.84894V5.39173C11.9975 5.28252 12.0021 5.17806 12.0068 5.0736V4.05511C12.0068 2.82532 12.985 1.81632 14.1875 1.81632C14.7865 1.81632 15.3322 2.06798 15.7277 2.47395C16.1231 2.87992 16.3682 3.44021 16.3682 4.05511V3.95777C16.3682 4.00288 16.3729 4.05511 16.3729 4.10497C16.3891 4.52043 16.3521 4.95964 16.5371 5.34425C17.099 6.51943 18.6114 6.31526 19.0786 5.27065C19.1364 5.14008 19.178 4.99763 19.2011 4.84094C19.3561 3.73698 18.8103 2.56179 18.0911 1.77359C16.8955 0.460707 15.6236 0.00725259 13.9123 0.000130267C13.2625 -0.00224384 12.948 0.0286196 12.941 0.0286196C11.5766 0.142577 10.2677 0.762219 9.29877 1.75697C8.24656 2.83719 7.59442 4.32338 7.59442 5.95915V7.84894H5.22406V11.2772H7.55511V16.2105C7.54586 16.5809 7.52967 16.9489 7.50655 17.3193C7.46261 17.9175 7.38861 18.4921 7.28223 19.0405C7.17585 19.5889 7.03247 20.1088 6.85441 20.586C6.67171 21.068 6.4474 21.4858 6.17683 21.8372C5.91088 22.1933 5.58944 22.4687 5.21943 22.6705C4.8448 22.8723 4.41698 22.972 3.92671 22.972C3.56364 22.972 3.25839 22.9174 3.00632 22.8082C2.75425 22.699 2.53687 22.5708 2.36574 22.4117C2.19461 22.2574 2.05123 22.0817 1.94254 21.8894C1.83617 21.7019 1.73904 21.5262 1.64885 21.3695C1.56329 21.2104 1.48235 21.0798 1.39909 20.973C1.31584 20.8662 1.22334 20.8092 1.11696 20.8092C0.936584 20.8092 0.77933 20.8543 0.640577 20.9469C0.501824 21.0442 0.383884 21.1606 0.286757 21.3101C0.191942 21.4573 0.120253 21.6188 0.0740017 21.7992C0.0254381 21.9844 0 22.1624 0 22.3381C0 22.5803 0.101752 22.8058 0.309882 23.0076C0.513387 23.2094 0.786268 23.3804 1.13315 23.5276C1.47541 23.6771 1.87085 23.7911 2.32412 23.8742C2.77275 23.9573 3.2422 24 3.72552 24C5.1038 24 6.30633 23.7697 7.33773 23.3091C8.36913 22.8486 9.2294 22.2075 9.91854 21.3885C10.6077 20.567 11.1211 19.596 11.4587 18.466C11.7963 17.3406 11.9675 16.1061 11.9675 14.7742V11.2772H15.545V16.0657C15.545 17.1911 16.4284 18.1027 17.5199 18.1146C17.5268 18.1146 17.5338 18.1146 17.5407 18.1146H17.5199H19.5411V18.1051V7.84894H11.9975Z" fill="#141414"/>
</svg>
