<svg width="24" height="24" viewBox="0 0 24 24" fill="none" xmlns="http://www.w3.org/2000/svg">
<path d="M22 10V15C22 20 20 22 15 22H9C4 22 2 20 2 15V9C2 4 4 2 9 2H14" stroke="#141414" stroke-width="2.5" stroke-linecap="round" stroke-linejoin="round"/>
<path d="M7 13H13" stroke="#141414" stroke-width="2.5" stroke-linecap="round" stroke-linejoin="round"/>
<path d="M7 17H11" stroke="#141414" stroke-width="2.5" stroke-linecap="round" stroke-linejoin="round"/>
<path d="M18.2287 3.59613L14.5187 7.30613C14.3787 7.44613 14.2387 7.72613 14.2087 7.92613L14.0087 9.34613C13.9387 9.85613 14.2987 10.2161 14.8087 10.1461L16.2287 9.94613C16.4287 9.91613 16.7087 9.77613 16.8487 9.63613L20.5587 5.92613C21.1987 5.28613 21.4987 4.54613 20.5587 3.60613C19.6087 2.65613 18.8687 2.95613 18.2287 3.59613Z" stroke="#141414" stroke-width="2" stroke-miterlimit="10" stroke-linecap="round" stroke-linejoin="round"/>
</svg>
