<svg width="24" height="25" viewBox="0 0 24 25" fill="none" xmlns="http://www.w3.org/2000/svg">
<path d="M13.05 16.75H11.17C9.84001 16.75 8.75 15.63 8.75 14.25C8.75 13.84 9.09 13.5 9.5 13.5C9.91 13.5 10.25 13.84 10.25 14.25C10.25 14.8 10.66 15.25 11.17 15.25H13.05C13.44 15.25 13.75 14.9 13.75 14.47C13.75 13.93 13.6 13.85 13.26 13.73L10.25 12.68C9.61 12.46 8.75 11.99 8.75 10.52C8.75 9.26999 9.74001 8.23999 10.95 8.23999H12.83C14.16 8.23999 15.25 9.35999 15.25 10.74C15.25 11.15 14.91 11.49 14.5 11.49C14.09 11.49 13.75 11.15 13.75 10.74C13.75 10.19 13.34 9.73999 12.83 9.73999H10.95C10.56 9.73999 10.25 10.09 10.25 10.52C10.25 11.06 10.4 11.14 10.74 11.26L13.75 12.31C14.39 12.53 15.25 13 15.25 14.47C15.25 15.73 14.26 16.75 13.05 16.75Z" fill="#E8E4DA"/>
<path d="M12 17.75C11.59 17.75 11.25 17.41 11.25 17V8C11.25 7.59 11.59 7.25 12 7.25C12.41 7.25 12.75 7.59 12.75 8V17C12.75 17.41 12.41 17.75 12 17.75Z" fill="#E8E4DA"/>
<path d="M1.99998 13.5C2 7.5 5.49997 2.5 13 2.5L11.3128 5.28488" stroke="#E8E4DA" stroke-width="1.5" stroke-linecap="round" stroke-linejoin="round"/>
<path d="M22.0438 12.9086C21.4444 18.8786 17.4625 23.504 9.99999 22.7548L11.957 20.1524" stroke="#E8E4DA" stroke-width="1.5" stroke-linecap="round" stroke-linejoin="round"/>
</svg>
