<svg width="24" height="25" viewBox="0 0 24 25" fill="none" xmlns="http://www.w3.org/2000/svg">
<path d="M3.27723 16.6908L3.27712 16.6909L3.28322 16.697L8.29322 21.707C8.68085 22.0946 9.31914 22.0946 9.70677 21.707C10.0944 21.3193 10.0944 20.681 9.70677 20.2934L4.69677 15.2834C4.30914 14.8958 3.67085 14.8958 3.28322 15.2834C3.08386 15.4828 2.99 15.7374 2.99 15.9902C2.99 16.2503 3.09887 16.4996 3.27723 16.6908Z" fill="#F7F7F7" stroke="#F7F7F7" stroke-width="0.5"/>
<path d="M8.01001 4L8.01001 21C8.01001 21.5481 8.46194 22 9.01001 22C9.55808 22 10.01 21.5481 10.01 21L10.01 4C10.01 3.45193 9.55808 3 9.01001 3C8.46194 3 8.01001 3.45193 8.01001 4Z" fill="#F7F7F7" stroke="#F7F7F7" stroke-width="0.5"/>
<path d="M14.2832 3.29316C14.0839 3.49252 13.99 3.74721 13.99 3.99994C13.99 4.25524 14.0956 4.51913 14.2832 4.70672L19.2932 9.71672C19.6809 10.1043 20.3191 10.1043 20.7068 9.71672C21.0944 9.32909 21.0944 8.6908 20.7068 8.30316L15.6968 3.29316C15.3091 2.90553 14.6709 2.90553 14.2832 3.29316Z" fill="#F7F7F7" stroke="#F7F7F7" stroke-width="0.5"/>
<path d="M13.99 4L13.99 21C13.99 21.5481 14.4419 22 14.99 22C15.5381 22 15.99 21.5481 15.99 21L15.99 4C15.99 3.45193 15.5381 3 14.99 3C14.4419 3 13.99 3.45193 13.99 4Z" fill="#F7F7F7" stroke="#F7F7F7" stroke-width="0.5"/>
</svg>
