<svg width="18" height="18" viewBox="0 0 18 18" fill="none" xmlns="http://www.w3.org/2000/svg">
<path d="M0.328678 17.6724C0.138163 17.4818 0.0230846 17.2288 0.00472441 16.96C-0.0136338 16.6911 0.0659674 16.4248 0.228811 16.2101L0.328678 16.0955L14.1882 2.23598L4.19513 2.25701C3.91281 2.25904 3.64023 2.1539 3.4324 1.96281C3.22458 1.77171 3.09698 1.50889 3.07537 1.22739C3.05376 0.945888 3.13973 0.666671 3.31595 0.446088C3.49217 0.225507 3.74551 0.0799859 4.02483 0.0388978L4.18987 0.0273354L16.8825 9.76925e-08C17.1643 -1.51857e-05 17.4357 0.106218 17.6426 0.297499L17.6741 0.326935L17.7046 0.357422C17.7194 0.373467 17.7338 0.389942 17.7477 0.406828L17.6741 0.326935C17.843 0.496531 17.9531 0.715719 17.9884 0.952423L17.9905 0.967138C17.997 1.01628 18.0001 1.0658 18 1.11536L17.9758 13.8112C17.9791 14.0952 17.8738 14.3698 17.6815 14.5789C17.4892 14.788 17.2243 14.9158 16.9409 14.9362C16.6576 14.9565 16.3771 14.868 16.1568 14.6886C15.9366 14.5093 15.793 14.2526 15.7556 13.971L15.7451 13.807L15.764 3.816L1.90659 17.6734C1.69748 17.8825 1.41388 18 1.11816 18C0.822439 18 0.538834 17.8825 0.329729 17.6734L0.328678 17.6724Z" fill="#F7F7F7"/>
</svg>
