<svg width="18" height="18" viewBox="0 0 18 18" fill="none" xmlns="http://www.w3.org/2000/svg">
<path d="M17.6713 0.327629C17.8618 0.518161 17.9769 0.771235 17.9953 1.04005C18.0136 1.30887 17.934 1.57524 17.7712 1.7899L17.6713 1.90449L3.8118 15.764L13.8049 15.743C14.0872 15.741 14.3598 15.8461 14.5676 16.0372C14.7754 16.2283 14.903 16.4911 14.9246 16.7726C14.9462 17.0541 14.8603 17.3333 14.684 17.5539C14.5078 17.7745 14.2545 17.92 13.9752 17.9611L13.8101 17.9727L1.11747 18C0.835712 18 0.564307 17.8938 0.357425 17.7025L0.325889 17.6731L0.295402 17.6426C0.280557 17.6265 0.266184 17.6101 0.252302 17.5932L0.325889 17.6731C0.157031 17.5035 0.0468853 17.2843 0.011569 17.0476L0.00946463 17.0329C0.00303749 16.9837 -0.00012298 16.9342 3.6593e-06 16.8846L0.0241822 4.18883C0.0209072 3.90476 0.126182 3.63016 0.318513 3.42109C0.510843 3.21202 0.775725 3.08424 1.05907 3.06384C1.34242 3.04345 1.62287 3.13198 1.84316 3.31136C2.06345 3.49074 2.20696 3.74744 2.2444 4.02904L2.25491 4.19303L2.23599 14.184L16.0934 0.326578C16.3025 0.117473 16.5861 2.49273e-08 16.8818 0C17.1776 -2.4927e-08 17.4612 0.117473 17.6703 0.326577L17.6713 0.327629Z" fill="#F7F7F7"/>
</svg>
