<svg width="24" height="25" viewBox="0 0 24 25" fill="none" xmlns="http://www.w3.org/2000/svg">
<path d="M16.1906 21.2227L16.1907 21.2228L16.1968 21.2167L21.2068 16.2067C21.5944 15.8191 21.5944 15.1808 21.2068 14.7932C20.8191 14.4055 20.1808 14.4055 19.7932 14.7932L14.7832 19.8032C14.3956 20.1908 14.3956 20.8291 14.7832 21.2167C14.9826 21.4161 15.2373 21.5099 15.49 21.5099C15.7501 21.5099 15.9995 21.4011 16.1906 21.2227Z" fill="#F7F7F7" stroke="#F7F7F7" stroke-width="0.5"/>
<path d="M3.5 16.4902H20.5C21.0481 16.4902 21.5 16.0383 21.5 15.4902C21.5 14.9422 21.0481 14.4902 20.5 14.4902H3.5C2.95193 14.4902 2.5 14.9422 2.5 15.4902C2.5 16.0383 2.95193 16.4902 3.5 16.4902Z" fill="#F7F7F7" stroke="#F7F7F7" stroke-width="0.5"/>
<path d="M2.79323 10.2167C2.99258 10.4161 3.24728 10.5099 3.5 10.5099C3.7553 10.5099 4.01919 10.4043 4.20678 10.2167L9.21678 5.20672C9.60441 4.81909 9.60441 4.1808 9.21678 3.79316C8.82915 3.40553 8.19086 3.40553 7.80323 3.79316L2.79323 8.80316C2.40559 9.1908 2.40559 9.82909 2.79323 10.2167Z" fill="#F7F7F7" stroke="#F7F7F7" stroke-width="0.5"/>
<path d="M3.5 10.5098H20.5C21.0481 10.5098 21.5 10.0578 21.5 9.50977C21.5 8.96169 21.0481 8.50977 20.5 8.50977H3.5C2.95193 8.50977 2.5 8.96169 2.5 9.50977C2.5 10.0578 2.95193 10.5098 3.5 10.5098Z" fill="#F7F7F7" stroke="#F7F7F7" stroke-width="0.5"/>
</svg>
