<svg width="32" height="32" viewBox="0 0 32 32" fill="none" xmlns="http://www.w3.org/2000/svg">
<path d="M29.3332 12V20C29.3332 26.6667 26.6665 29.3334 19.9998 29.3334H11.9998C5.33317 29.3334 2.6665 26.6667 2.6665 20V12C2.6665 5.33335 5.33317 2.66669 11.9998 2.66669H19.9998" stroke="#141414" stroke-width="2.5" stroke-linecap="round" stroke-linejoin="round"/>
<path d="M17.7333 21.9966H15.2267C13.4534 21.9966 12 20.5033 12 18.6633C12 18.1166 12.4533 17.6633 13 17.6633C13.5467 17.6633 14 18.1166 14 18.6633C14 19.3966 14.5467 19.9966 15.2267 19.9966H17.7333C18.2533 19.9966 18.6667 19.53 18.6667 18.9566C18.6667 18.2366 18.4667 18.13 18.0133 17.97L14 16.5699C13.1467 16.2766 12 15.65 12 13.69C12 12.0233 13.32 10.65 14.9333 10.65H17.44C19.2133 10.65 20.6667 12.1433 20.6667 13.9833C20.6667 14.53 20.2133 14.9833 19.6667 14.9833C19.12 14.9833 18.6667 14.53 18.6667 13.9833C18.6667 13.25 18.12 12.65 17.44 12.65H14.9333C14.4133 12.65 14 13.1166 14 13.69C14 14.41 14.2 14.5166 14.6533 14.6766L18.6667 16.0766C19.52 16.37 20.6667 16.9966 20.6667 18.9566C20.6667 20.6366 19.3467 21.9966 17.7333 21.9966Z" fill="#141414"/>
<path d="M16.3335 23.33C15.7868 23.33 15.3335 22.8767 15.3335 22.33V10.33C15.3335 9.78335 15.7868 9.33002 16.3335 9.33002C16.8802 9.33002 17.3335 9.78335 17.3335 10.33V22.33C17.3335 22.8767 16.8802 23.33 16.3335 23.33Z" fill="#141414"/>
<path d="M27.6668 10.6634H22.3335C21.7868 10.6634 21.3335 10.21 21.3335 9.66335V4.33002C21.3335 3.78335 21.7868 3.33002 22.3335 3.33002C22.8802 3.33002 23.3335 3.78335 23.3335 4.33002V8.66335H27.6668C28.2135 8.66335 28.6668 9.11668 28.6668 9.66335C28.6668 10.21 28.2135 10.6634 27.6668 10.6634Z" fill="#141414"/>
<path d="M22.3331 10.6633C22.0798 10.6633 21.8264 10.57 21.6264 10.37C21.2398 9.98333 21.2398 9.34333 21.6264 8.95667L28.2931 2.29C28.6798 1.90333 29.3198 1.90333 29.7064 2.29C30.0931 2.67667 30.0931 3.31666 29.7064 3.70333L23.0398 10.37C22.8398 10.57 22.5864 10.6633 22.3331 10.6633Z" fill="#141414"/>
</svg>
