<svg width="32" height="32" viewBox="0 0 32 32" fill="none" xmlns="http://www.w3.org/2000/svg">
<path d="M11.9998 29.3334H19.9998C26.6665 29.3334 29.3332 26.6667 29.3332 20V12C29.3332 5.33335 26.6665 2.66669 19.9998 2.66669H11.9998C5.33317 2.66669 2.6665 5.33335 2.6665 12V20C2.6665 26.6667 5.33317 29.3334 11.9998 29.3334Z" stroke="#141414" stroke-width="2.5" stroke-linecap="round" stroke-linejoin="round"/>
<path d="M20.6667 24.6666C22.1333 24.6666 23.3333 23.4666 23.3333 22V9.99998C23.3333 8.53331 22.1333 7.33331 20.6667 7.33331C19.2 7.33331 18 8.53331 18 9.99998V22C18 23.4666 19.1867 24.6666 20.6667 24.6666Z" stroke="#141414" stroke-width="2" stroke-linecap="round" stroke-linejoin="round"/>
<path d="M11.3332 24.6667C12.7998 24.6667 13.9998 23.4667 13.9998 22V17.3334C13.9998 15.8667 12.7998 14.6667 11.3332 14.6667C9.8665 14.6667 8.6665 15.8667 8.6665 17.3334V22C8.6665 23.4667 9.85317 24.6667 11.3332 24.6667Z" stroke="#141414" stroke-width="2" stroke-linecap="round" stroke-linejoin="round"/>
</svg>
