<svg width="32" height="32" viewBox="0 0 32 32" fill="none" xmlns="http://www.w3.org/2000/svg">
<path d="M9.3335 13.1H17.3335C17.9354 13.1 18.4335 12.6019 18.4335 12C18.4335 11.3981 17.9354 10.9 17.3335 10.9H9.3335C8.7316 10.9 8.2335 11.3981 8.2335 12C8.2335 12.6019 8.7316 13.1 9.3335 13.1Z" fill="#141414" stroke="#141414" stroke-width="0.2"/>
<path d="M25.3867 19.7332C23.3733 19.7332 21.6667 18.2399 21.5067 16.3199C21.4 15.2132 21.8001 14.1333 22.6001 13.3466C23.2667 12.6533 24.2133 12.2666 25.2133 12.2666H28C29.32 12.3066 30.3334 13.3465 30.3334 14.6265V17.3733C30.3334 18.6533 29.3201 19.6932 28.0401 19.7332H25.3867ZM27.96 14.2666H25.2267C24.76 14.2666 24.3334 14.4399 24.0267 14.7599C23.6401 15.1333 23.4534 15.6399 23.5067 16.1466C23.5734 17.0266 24.4267 17.7332 25.3867 17.7332H28C28.1734 17.7332 28.3334 17.5733 28.3334 17.3733V14.6265C28.3334 14.4265 28.1733 14.2799 27.96 14.2666Z" fill="#141414"/>
<path d="M24.0972 14.8307L24.0973 14.8308L24.0987 14.8292C24.3851 14.5304 24.785 14.3667 25.2265 14.3667H27.9998C28.6017 14.3667 29.0998 13.8686 29.0998 13.2667V11.3334C29.0998 9.23904 28.4497 7.43177 27.2974 6.08987C26.1452 4.74816 24.4955 3.87726 22.5066 3.64757C22.0734 3.58004 21.6551 3.56669 21.3332 3.56669H9.33317C8.90092 3.56669 8.48293 3.60716 8.11959 3.66095C6.13068 3.91065 4.49099 4.78824 3.34875 6.12678C2.20651 7.46532 1.5665 9.25916 1.5665 11.3334V20.6667C1.5665 22.9829 2.34463 24.9262 3.70913 26.2907C5.07362 27.6552 7.01693 28.4334 9.33317 28.4334H21.3332C23.6494 28.4334 25.5927 27.6552 26.9573 26.289C28.3218 24.9228 29.0998 22.9762 29.0998 20.6533V18.72C29.0998 18.1181 28.6017 17.62 27.9998 17.62H25.3865C24.4695 17.62 23.6683 16.9449 23.6062 16.1258L23.6062 16.1255C23.5684 15.647 23.7319 15.1835 24.0826 14.8454L24.0839 14.8441L24.0972 14.8307ZM8.41245 5.83254L8.41276 5.8325C8.7166 5.79287 9.01876 5.76669 9.33317 5.76669H21.3332C21.6137 5.76669 21.8859 5.76683 22.1967 5.81863L22.1967 5.81875L22.2015 5.81931C23.6594 5.99006 24.8319 6.6029 25.6404 7.55154C26.4492 8.50055 26.8998 9.79302 26.8998 11.3334V12.1667H25.2265C24.2006 12.1667 23.2418 12.5635 22.5294 13.2891C21.7083 14.0833 21.2976 15.2059 21.4069 16.329C21.5719 18.3046 23.3256 19.8333 25.3865 19.8333H26.8998V20.6667C26.8998 22.3647 26.3507 23.7544 25.3858 24.7193C24.4209 25.6842 23.0312 26.2334 21.3332 26.2334H9.33317C7.63515 26.2334 6.24548 25.6842 5.28055 24.7193C4.31562 23.7544 3.7665 22.3647 3.7665 20.6667V11.3334C3.7665 9.80624 4.21057 8.52362 5.00955 7.57788C5.80822 6.63251 6.96766 6.01642 8.41245 5.83254Z" fill="#141414" stroke="#141414" stroke-width="0.2"/>
</svg>
